<svg xmlns="http://www.w3.org/2000/svg" viewBox="0 0 512 512">
  <defs>
    <linearGradient id="grad1" x1="0%" y1="0%" x2="100%" y2="100%">
      <stop offset="0%" style="stop-color:#4f46e5;stop-opacity:1" /> <stop offset="100%" style="stop-color:#9333ea;stop-opacity:1" /> </linearGradient>
  </defs>
  
  <path d="M256 0C114.6 0 0 114.6 0 256s114.6 256 256 256 256-114.6 256-256S397.4 0 256 0z" fill="url(#grad1)"/>
  
  <path d="M368 144H144c-17.6 0-32 14.4-32 32v208c0 8.8 7.2 16 16 16h240c17.6 0 32-14.4 32-32V176c0-17.6-14.4-32-32-32zM256 368c-17.7 0-32-14.3-32-32V192c0-8.8 7.2-16 16-16s16 7.2 16 16v144c0 17.7 14.3 32 32 32z" fill="white"/>
</svg>